<?xml version="1.0" encoding="UTF-8" standalone="no"?>
<!DOCTYPE svg PUBLIC "-//W3C//DTD SVG 1.1//EN"
 "http://www.w3.org/Graphics/SVG/1.1/DTD/svg11.dtd">
<!-- Generated by graphviz version 2.47.3 (20210619.1520)
 -->
<!-- Title: dependencies Pages: 1 -->
<svg width="884pt" height="247pt"
 viewBox="0.00 0.00 884.00 246.80" xmlns="http://www.w3.org/2000/svg" xmlns:xlink="http://www.w3.org/1999/xlink">
<g id="graph0" class="graph" transform="scale(1 1) rotate(0) translate(4 242.8)">
<title>dependencies</title>
<polygon fill="white" stroke="transparent" points="-4,4 -4,-242.8 880,-242.8 880,4 -4,4"/>
<text text-anchor="middle" x="438" y="-8.2" font-family="sans-serif" font-size="14.00">dependencies</text>
<g id="clust1" class="cluster">
<title>cluster_SimulationDiagramModule</title>
<polygon fill="none" stroke="black" stroke-dasharray="1,5" points="8,-32.8 8,-230.8 868,-230.8 868,-32.8 8,-32.8"/>
</g>
<g id="clust2" class="cluster">
<title>cluster_SimulationDiagramModule_declarations</title>
<polygon fill="none" stroke="black" points="16,-40.8 16,-92.8 860,-92.8 860,-40.8 16,-40.8"/>
</g>
<g id="clust9" class="cluster">
<title>cluster_SimulationDiagramModule_exports</title>
<polygon fill="none" stroke="black" points="362,-170.8 362,-222.8 574,-222.8 574,-170.8 362,-170.8"/>
</g>
<!-- DiagramComponent -->
<g id="node1" class="node">
<title>DiagramComponent</title>
<polygon fill="#ffffb3" stroke="black" points="852.31,-84.8 721.69,-84.8 721.69,-48.8 852.31,-48.8 852.31,-84.8"/>
<text text-anchor="middle" x="787" y="-62.6" font-family="Times,serif" font-size="14.00">DiagramComponent</text>
</g>
<!-- SimulationDiagramModule -->
<g id="node6" class="node">
<title>SimulationDiagramModule</title>
<polygon fill="#8dd3c7" stroke="black" points="552.98,-149.8 549.98,-153.8 528.98,-153.8 525.98,-149.8 383.02,-149.8 383.02,-113.8 552.98,-113.8 552.98,-149.8"/>
<text text-anchor="middle" x="468" y="-127.6" font-family="Times,serif" font-size="14.00">SimulationDiagramModule</text>
</g>
<!-- DiagramComponent&#45;&gt;SimulationDiagramModule -->
<g id="edge1" class="edge">
<title>DiagramComponent&#45;&gt;SimulationDiagramModule</title>
<path fill="none" stroke="black" d="M787,-85.08C787,-106.12 787,-137.8 787,-137.8 787,-137.8 563.07,-137.8 563.07,-137.8"/>
<polygon fill="black" stroke="black" points="563.07,-134.3 553.07,-137.8 563.07,-141.3 563.07,-134.3"/>
</g>
<!-- DiagramLineComponent -->
<g id="node2" class="node">
<title>DiagramLineComponent</title>
<polygon fill="#ffffb3" stroke="black" points="703.97,-84.8 548.03,-84.8 548.03,-48.8 703.97,-48.8 703.97,-84.8"/>
<text text-anchor="middle" x="626" y="-62.6" font-family="Times,serif" font-size="14.00">DiagramLineComponent</text>
</g>
<!-- DiagramLineComponent&#45;&gt;SimulationDiagramModule -->
<g id="edge2" class="edge">
<title>DiagramLineComponent&#45;&gt;SimulationDiagramModule</title>
<path fill="none" stroke="black" d="M559.31,-84.82C559.31,-102.17 559.31,-125.8 559.31,-125.8 559.31,-125.8 558.68,-125.8 558.68,-125.8"/>
<polygon fill="black" stroke="black" points="563.03,-122.3 553.03,-125.8 563.03,-129.3 563.03,-122.3"/>
</g>
<!-- LegendComponent -->
<g id="node3" class="node">
<title>LegendComponent</title>
<polygon fill="#ffffb3" stroke="black" points="529.81,-84.8 406.19,-84.8 406.19,-48.8 529.81,-48.8 529.81,-84.8"/>
<text text-anchor="middle" x="468" y="-62.6" font-family="Times,serif" font-size="14.00">LegendComponent</text>
</g>
<!-- LegendComponent&#45;&gt;SimulationDiagramModule -->
<g id="edge3" class="edge">
<title>LegendComponent&#45;&gt;SimulationDiagramModule</title>
<path fill="none" stroke="black" d="M468,-84.91C468,-84.91 468,-103.79 468,-103.79"/>
<polygon fill="black" stroke="black" points="464.5,-103.79 468,-113.79 471.5,-103.79 464.5,-103.79"/>
</g>
<!-- LegendEntryComponent -->
<g id="node4" class="node">
<title>LegendEntryComponent</title>
<polygon fill="#ffffb3" stroke="black" points="388.42,-84.8 233.58,-84.8 233.58,-48.8 388.42,-48.8 388.42,-84.8"/>
<text text-anchor="middle" x="311" y="-62.6" font-family="Times,serif" font-size="14.00">LegendEntryComponent</text>
</g>
<!-- LegendEntryComponent&#45;&gt;SimulationDiagramModule -->
<g id="edge4" class="edge">
<title>LegendEntryComponent&#45;&gt;SimulationDiagramModule</title>
<path fill="none" stroke="black" d="M376.69,-85.08C376.69,-106.12 376.69,-137.8 376.69,-137.8 376.69,-137.8 377.32,-137.8 377.32,-137.8"/>
<polygon fill="black" stroke="black" points="372.97,-141.3 382.97,-137.8 372.97,-134.3 372.97,-141.3"/>
</g>
<!-- SimulationDiagramComponent -->
<g id="node5" class="node">
<title>SimulationDiagramComponent</title>
<polygon fill="#ffffb3" stroke="black" points="215.76,-84.8 24.24,-84.8 24.24,-48.8 215.76,-48.8 215.76,-84.8"/>
<text text-anchor="middle" x="120" y="-62.6" font-family="Times,serif" font-size="14.00">SimulationDiagramComponent</text>
</g>
<!-- SimulationDiagramComponent&#45;&gt;SimulationDiagramModule -->
<g id="edge5" class="edge">
<title>SimulationDiagramComponent&#45;&gt;SimulationDiagramModule</title>
<path fill="none" stroke="black" d="M120,-84.82C120,-102.17 120,-125.8 120,-125.8 120,-125.8 372.87,-125.8 372.87,-125.8"/>
<polygon fill="black" stroke="black" points="372.87,-129.3 382.87,-125.8 372.87,-122.3 372.87,-129.3"/>
</g>
<!-- SimulationDiagramComponent  -->
<g id="node7" class="node">
<title>SimulationDiagramComponent </title>
<polygon fill="#fb8072" stroke="black" points="565.76,-214.8 370.24,-214.8 370.24,-178.8 565.76,-178.8 565.76,-214.8"/>
<text text-anchor="middle" x="468" y="-192.6" font-family="Times,serif" font-size="14.00">SimulationDiagramComponent </text>
</g>
<!-- SimulationDiagramModule&#45;&gt;SimulationDiagramComponent  -->
<g id="edge6" class="edge">
<title>SimulationDiagramModule&#45;&gt;SimulationDiagramComponent </title>
<path fill="none" stroke="black" stroke-dasharray="5,2" d="M468,-149.91C468,-149.91 468,-168.79 468,-168.79"/>
<polygon fill="black" stroke="black" points="464.5,-168.79 468,-178.79 471.5,-168.79 464.5,-168.79"/>
</g>
</g>
</svg>
