<?xml version="1.0" encoding="UTF-8" standalone="no"?>
<!DOCTYPE svg PUBLIC "-//W3C//DTD SVG 1.1//EN"
 "http://www.w3.org/Graphics/SVG/1.1/DTD/svg11.dtd">
<!-- Generated by graphviz version 2.47.3 (20210619.1520)
 -->
<!-- Title: dependencies Pages: 1 -->
<svg width="1800pt" height="247pt"
 viewBox="0.00 0.00 1800.00 246.80" xmlns="http://www.w3.org/2000/svg" xmlns:xlink="http://www.w3.org/1999/xlink">
<g id="graph0" class="graph" transform="scale(1 1) rotate(0) translate(4 242.8)">
<title>dependencies</title>
<polygon fill="white" stroke="transparent" points="-4,4 -4,-242.8 1796,-242.8 1796,4 -4,4"/>
<text text-anchor="middle" x="896" y="-8.2" font-family="sans-serif" font-size="14.00">dependencies</text>
<g id="clust1" class="cluster">
<title>cluster_GraphEditorModule</title>
<polygon fill="none" stroke="black" stroke-dasharray="1,5" points="8,-32.8 8,-230.8 1784,-230.8 1784,-32.8 8,-32.8"/>
</g>
<g id="clust2" class="cluster">
<title>cluster_GraphEditorModule_declarations</title>
<polygon fill="none" stroke="black" points="16,-40.8 16,-92.8 1776,-92.8 1776,-40.8 16,-40.8"/>
</g>
<g id="clust13" class="cluster">
<title>cluster_GraphEditorModule_exports</title>
<polygon fill="none" stroke="black" points="729,-170.8 729,-222.8 899,-222.8 899,-170.8 729,-170.8"/>
</g>
<!-- ConnectionComponent -->
<g id="node1" class="node">
<title>ConnectionComponent</title>
<polygon fill="#ffffb3" stroke="black" points="1767.88,-84.8 1622.12,-84.8 1622.12,-48.8 1767.88,-48.8 1767.88,-84.8"/>
<text text-anchor="middle" x="1695" y="-62.6" font-family="Times,serif" font-size="14.00">ConnectionComponent</text>
</g>
<!-- GraphEditorModule -->
<g id="node10" class="node">
<title>GraphEditorModule</title>
<polygon fill="#8dd3c7" stroke="black" points="878.53,-149.8 875.53,-153.8 854.53,-153.8 851.53,-149.8 749.47,-149.8 749.47,-113.8 878.53,-113.8 878.53,-149.8"/>
<text text-anchor="middle" x="814" y="-127.6" font-family="Times,serif" font-size="14.00">GraphEditorModule</text>
</g>
<!-- ConnectionComponent&#45;&gt;GraphEditorModule -->
<g id="edge1" class="edge">
<title>ConnectionComponent&#45;&gt;GraphEditorModule</title>
<path fill="none" stroke="black" d="M1695,-84.81C1695,-107.29 1695,-142.8 1695,-142.8 1695,-142.8 888.78,-142.8 888.78,-142.8"/>
<polygon fill="black" stroke="black" points="888.78,-139.3 878.78,-142.8 888.78,-146.3 888.78,-139.3"/>
</g>
<!-- GraphControlSimulationNavigationComponent -->
<g id="node2" class="node">
<title>GraphControlSimulationNavigationComponent</title>
<polygon fill="#ffffb3" stroke="black" points="1604.25,-84.8 1321.75,-84.8 1321.75,-48.8 1604.25,-48.8 1604.25,-84.8"/>
<text text-anchor="middle" x="1463" y="-62.6" font-family="Times,serif" font-size="14.00">GraphControlSimulationNavigationComponent</text>
</g>
<!-- GraphControlSimulationNavigationComponent&#45;&gt;GraphEditorModule -->
<g id="edge2" class="edge">
<title>GraphControlSimulationNavigationComponent&#45;&gt;GraphEditorModule</title>
<path fill="none" stroke="black" d="M1463,-84.93C1463,-105.37 1463,-135.8 1463,-135.8 1463,-135.8 888.6,-135.8 888.6,-135.8"/>
<polygon fill="black" stroke="black" points="888.6,-132.3 878.6,-135.8 888.6,-139.3 888.6,-132.3"/>
</g>
<!-- GraphControlToolComponent -->
<g id="node3" class="node">
<title>GraphControlToolComponent</title>
<polygon fill="#ffffb3" stroke="black" points="1303.54,-84.8 1118.46,-84.8 1118.46,-48.8 1303.54,-48.8 1303.54,-84.8"/>
<text text-anchor="middle" x="1211" y="-62.6" font-family="Times,serif" font-size="14.00">GraphControlToolComponent</text>
</g>
<!-- GraphControlToolComponent&#45;&gt;GraphEditorModule -->
<g id="edge3" class="edge">
<title>GraphControlToolComponent&#45;&gt;GraphEditorModule</title>
<path fill="none" stroke="black" d="M1211,-85.07C1211,-103.36 1211,-128.8 1211,-128.8 1211,-128.8 888.67,-128.8 888.67,-128.8"/>
<polygon fill="black" stroke="black" points="888.67,-125.3 878.67,-128.8 888.67,-132.3 888.67,-125.3"/>
</g>
<!-- GraphControlZoomComponent -->
<g id="node4" class="node">
<title>GraphControlZoomComponent</title>
<polygon fill="#ffffb3" stroke="black" points="1100.04,-84.8 907.96,-84.8 907.96,-48.8 1100.04,-48.8 1100.04,-84.8"/>
<text text-anchor="middle" x="1004" y="-62.6" font-family="Times,serif" font-size="14.00">GraphControlZoomComponent</text>
</g>
<!-- GraphControlZoomComponent&#45;&gt;GraphEditorModule -->
<g id="edge4" class="edge">
<title>GraphControlZoomComponent&#45;&gt;GraphEditorModule</title>
<path fill="none" stroke="black" d="M1004,-84.81C1004,-100.85 1004,-121.8 1004,-121.8 1004,-121.8 888.59,-121.8 888.59,-121.8"/>
<polygon fill="black" stroke="black" points="888.59,-118.3 878.59,-121.8 888.59,-125.3 888.59,-118.3"/>
</g>
<!-- GraphEditorComponent -->
<g id="node5" class="node">
<title>GraphEditorComponent</title>
<polygon fill="#ffffb3" stroke="black" points="889.81,-84.8 738.19,-84.8 738.19,-48.8 889.81,-48.8 889.81,-84.8"/>
<text text-anchor="middle" x="814" y="-62.6" font-family="Times,serif" font-size="14.00">GraphEditorComponent</text>
</g>
<!-- GraphEditorComponent&#45;&gt;GraphEditorModule -->
<g id="edge5" class="edge">
<title>GraphEditorComponent&#45;&gt;GraphEditorModule</title>
<path fill="none" stroke="black" d="M814,-84.91C814,-84.91 814,-103.79 814,-103.79"/>
<polygon fill="black" stroke="black" points="810.5,-103.79 814,-113.79 817.5,-103.79 810.5,-103.79"/>
</g>
<!-- GraphEditorControlsComponent -->
<g id="node6" class="node">
<title>GraphEditorControlsComponent</title>
<polygon fill="#ffffb3" stroke="black" points="720.53,-84.8 521.47,-84.8 521.47,-48.8 720.53,-48.8 720.53,-84.8"/>
<text text-anchor="middle" x="621" y="-62.6" font-family="Times,serif" font-size="14.00">GraphEditorControlsComponent</text>
</g>
<!-- GraphEditorControlsComponent&#45;&gt;GraphEditorModule -->
<g id="edge6" class="edge">
<title>GraphEditorControlsComponent&#45;&gt;GraphEditorModule</title>
<path fill="none" stroke="black" d="M621,-84.81C621,-100.85 621,-121.8 621,-121.8 621,-121.8 739.47,-121.8 739.47,-121.8"/>
<polygon fill="black" stroke="black" points="739.47,-125.3 749.47,-121.8 739.47,-118.3 739.47,-125.3"/>
</g>
<!-- GroupNodeComponent -->
<g id="node7" class="node">
<title>GroupNodeComponent</title>
<polygon fill="#ffffb3" stroke="black" points="503.92,-84.8 356.08,-84.8 356.08,-48.8 503.92,-48.8 503.92,-84.8"/>
<text text-anchor="middle" x="430" y="-62.6" font-family="Times,serif" font-size="14.00">GroupNodeComponent</text>
</g>
<!-- GroupNodeComponent&#45;&gt;GraphEditorModule -->
<g id="edge7" class="edge">
<title>GroupNodeComponent&#45;&gt;GraphEditorModule</title>
<path fill="none" stroke="black" d="M430,-85.07C430,-103.36 430,-128.8 430,-128.8 430,-128.8 739.29,-128.8 739.29,-128.8"/>
<polygon fill="black" stroke="black" points="739.29,-132.3 749.29,-128.8 739.29,-125.3 739.29,-132.3"/>
</g>
<!-- PersonNodeComponent -->
<g id="node8" class="node">
<title>PersonNodeComponent</title>
<polygon fill="#ffffb3" stroke="black" points="337.76,-84.8 188.24,-84.8 188.24,-48.8 337.76,-48.8 337.76,-84.8"/>
<text text-anchor="middle" x="263" y="-62.6" font-family="Times,serif" font-size="14.00">PersonNodeComponent</text>
</g>
<!-- PersonNodeComponent&#45;&gt;GraphEditorModule -->
<g id="edge8" class="edge">
<title>PersonNodeComponent&#45;&gt;GraphEditorModule</title>
<path fill="none" stroke="black" d="M263,-84.93C263,-105.37 263,-135.8 263,-135.8 263,-135.8 739.44,-135.8 739.44,-135.8"/>
<polygon fill="black" stroke="black" points="739.44,-139.3 749.44,-135.8 739.44,-132.3 739.44,-139.3"/>
</g>
<!-- SocialNodeComponent -->
<g id="node9" class="node">
<title>SocialNodeComponent</title>
<polygon fill="#ffffb3" stroke="black" points="170.15,-84.8 23.85,-84.8 23.85,-48.8 170.15,-48.8 170.15,-84.8"/>
<text text-anchor="middle" x="97" y="-62.6" font-family="Times,serif" font-size="14.00">SocialNodeComponent</text>
</g>
<!-- SocialNodeComponent&#45;&gt;GraphEditorModule -->
<g id="edge9" class="edge">
<title>SocialNodeComponent&#45;&gt;GraphEditorModule</title>
<path fill="none" stroke="black" d="M97,-84.81C97,-107.29 97,-142.8 97,-142.8 97,-142.8 739.42,-142.8 739.42,-142.8"/>
<polygon fill="black" stroke="black" points="739.42,-146.3 749.42,-142.8 739.42,-139.3 739.42,-146.3"/>
</g>
<!-- GraphEditorComponent  -->
<g id="node11" class="node">
<title>GraphEditorComponent </title>
<polygon fill="#fb8072" stroke="black" points="891.31,-214.8 736.69,-214.8 736.69,-178.8 891.31,-178.8 891.31,-214.8"/>
<text text-anchor="middle" x="814" y="-192.6" font-family="Times,serif" font-size="14.00">GraphEditorComponent </text>
</g>
<!-- GraphEditorModule&#45;&gt;GraphEditorComponent  -->
<g id="edge10" class="edge">
<title>GraphEditorModule&#45;&gt;GraphEditorComponent </title>
<path fill="none" stroke="black" stroke-dasharray="5,2" d="M814,-149.91C814,-149.91 814,-168.79 814,-168.79"/>
<polygon fill="black" stroke="black" points="810.5,-168.79 814,-178.79 817.5,-168.79 810.5,-168.79"/>
</g>
</g>
</svg>
