<?xml version="1.0" encoding="UTF-8" standalone="no"?>
<!DOCTYPE svg PUBLIC "-//W3C//DTD SVG 1.1//EN"
 "http://www.w3.org/Graphics/SVG/1.1/DTD/svg11.dtd">
<!-- Generated by graphviz version 2.47.3 (20210619.1520)
 -->
<!-- Title: dependencies Pages: 1 -->
<svg width="2306pt" height="247pt"
 viewBox="0.00 0.00 2306.00 246.80" xmlns="http://www.w3.org/2000/svg" xmlns:xlink="http://www.w3.org/1999/xlink">
<g id="graph0" class="graph" transform="scale(1 1) rotate(0) translate(4 242.8)">
<title>dependencies</title>
<polygon fill="white" stroke="transparent" points="-4,4 -4,-242.8 2302,-242.8 2302,4 -4,4"/>
<text text-anchor="middle" x="1149" y="-8.2" font-family="sans-serif" font-size="14.00">dependencies</text>
<g id="clust1" class="cluster">
<title>cluster_SharedModule</title>
<polygon fill="none" stroke="black" stroke-dasharray="1,5" points="8,-32.8 8,-230.8 2290,-230.8 2290,-32.8 8,-32.8"/>
</g>
<g id="clust2" class="cluster">
<title>cluster_SharedModule_declarations</title>
<polygon fill="none" stroke="black" points="320,-40.8 320,-92.8 2282,-92.8 2282,-40.8 320,-40.8"/>
</g>
<g id="clust19" class="cluster">
<title>cluster_SharedModule_providers</title>
<polygon fill="none" stroke="black" points="16,-40.8 16,-92.8 312,-92.8 312,-40.8 16,-40.8"/>
</g>
<g id="clust17" class="cluster">
<title>cluster_SharedModule_exports</title>
<polygon fill="none" stroke="black" points="154,-170.8 154,-222.8 2133,-222.8 2133,-170.8 154,-170.8"/>
</g>
<!-- ButtonDirective -->
<g id="node1" class="node">
<title>ButtonDirective</title>
<polygon fill="#ffffb3" stroke="black" points="2274.2,-84.8 2167.8,-84.8 2167.8,-48.8 2274.2,-48.8 2274.2,-84.8"/>
<text text-anchor="middle" x="2221" y="-62.6" font-family="Times,serif" font-size="14.00">ButtonDirective</text>
</g>
<!-- SharedModule -->
<g id="node14" class="node">
<title>SharedModule</title>
<polygon fill="#8dd3c7" stroke="black" points="1159.42,-149.8 1156.42,-153.8 1135.42,-153.8 1132.42,-149.8 1060.58,-149.8 1060.58,-113.8 1159.42,-113.8 1159.42,-149.8"/>
<text text-anchor="middle" x="1110" y="-127.6" font-family="Times,serif" font-size="14.00">SharedModule</text>
</g>
<!-- ButtonDirective&#45;&gt;SharedModule -->
<g id="edge1" class="edge">
<title>ButtonDirective&#45;&gt;SharedModule</title>
<path fill="none" stroke="black" d="M2221,-84.91C2221,-104.14 2221,-131.8 2221,-131.8 2221,-131.8 1169.53,-131.8 1169.53,-131.8"/>
<polygon fill="black" stroke="black" points="1169.53,-128.3 1159.53,-131.8 1169.53,-135.3 1169.53,-128.3"/>
</g>
<!-- ButtonSmallDirective -->
<g id="node2" class="node">
<title>ButtonSmallDirective</title>
<polygon fill="#ffffb3" stroke="black" points="2149.37,-84.8 2010.63,-84.8 2010.63,-48.8 2149.37,-48.8 2149.37,-84.8"/>
<text text-anchor="middle" x="2080" y="-62.6" font-family="Times,serif" font-size="14.00">ButtonSmallDirective</text>
</g>
<!-- ButtonSmallDirective&#45;&gt;SharedModule -->
<g id="edge2" class="edge">
<title>ButtonSmallDirective&#45;&gt;SharedModule</title>
<path fill="none" stroke="black" d="M2051.72,-85.02C2051.72,-103.63 2051.72,-129.8 2051.72,-129.8 2051.72,-129.8 1169.3,-129.8 1169.3,-129.8"/>
<polygon fill="black" stroke="black" points="1169.3,-126.3 1159.3,-129.8 1169.3,-133.3 1169.3,-126.3"/>
</g>
<!-- ColorInputComponent -->
<g id="node3" class="node">
<title>ColorInputComponent</title>
<polygon fill="#ffffb3" stroke="black" points="1992.27,-84.8 1849.73,-84.8 1849.73,-48.8 1992.27,-48.8 1992.27,-84.8"/>
<text text-anchor="middle" x="1921" y="-62.6" font-family="Times,serif" font-size="14.00">ColorInputComponent</text>
</g>
<!-- ColorInputComponent&#45;&gt;SharedModule -->
<g id="edge3" class="edge">
<title>ColorInputComponent&#45;&gt;SharedModule</title>
<path fill="none" stroke="black" d="M1946.53,-84.8C1946.53,-102.48 1946.53,-126.8 1946.53,-126.8 1946.53,-126.8 1169.51,-126.8 1169.51,-126.8"/>
<polygon fill="black" stroke="black" points="1169.51,-123.3 1159.51,-126.8 1169.51,-130.3 1169.51,-123.3"/>
</g>
<!-- DropDownComponent -->
<g id="node4" class="node">
<title>DropDownComponent</title>
<polygon fill="#ffffb3" stroke="black" points="1831.31,-84.8 1686.69,-84.8 1686.69,-48.8 1831.31,-48.8 1831.31,-84.8"/>
<text text-anchor="middle" x="1759" y="-62.6" font-family="Times,serif" font-size="14.00">DropDownComponent</text>
</g>
<!-- DropDownComponent&#45;&gt;SharedModule -->
<g id="edge4" class="edge">
<title>DropDownComponent&#45;&gt;SharedModule</title>
<path fill="none" stroke="black" d="M1784.39,-84.83C1784.39,-101.86 1784.39,-124.8 1784.39,-124.8 1784.39,-124.8 1169.32,-124.8 1169.32,-124.8"/>
<polygon fill="black" stroke="black" points="1169.32,-121.3 1159.32,-124.8 1169.32,-128.3 1169.32,-121.3"/>
</g>
<!-- InputLargeComponent -->
<g id="node5" class="node">
<title>InputLargeComponent</title>
<polygon fill="#ffffb3" stroke="black" points="1668.53,-84.8 1525.47,-84.8 1525.47,-48.8 1668.53,-48.8 1668.53,-84.8"/>
<text text-anchor="middle" x="1597" y="-62.6" font-family="Times,serif" font-size="14.00">InputLargeComponent</text>
</g>
<!-- InputLargeComponent&#45;&gt;SharedModule -->
<g id="edge5" class="edge">
<title>InputLargeComponent&#45;&gt;SharedModule</title>
<path fill="none" stroke="black" d="M1620.92,-84.81C1620.92,-100.85 1620.92,-121.8 1620.92,-121.8 1620.92,-121.8 1169.45,-121.8 1169.45,-121.8"/>
<polygon fill="black" stroke="black" points="1169.45,-118.3 1159.45,-121.8 1169.45,-125.3 1169.45,-118.3"/>
</g>
<!-- InputLargeDirective -->
<g id="node6" class="node">
<title>InputLargeDirective</title>
<polygon fill="#ffffb3" stroke="black" points="1507.28,-84.8 1376.72,-84.8 1376.72,-48.8 1507.28,-48.8 1507.28,-84.8"/>
<text text-anchor="middle" x="1442" y="-62.6" font-family="Times,serif" font-size="14.00">InputLargeDirective</text>
</g>
<!-- InputLargeDirective&#45;&gt;SharedModule -->
<g id="edge6" class="edge">
<title>InputLargeDirective&#45;&gt;SharedModule</title>
<path fill="none" stroke="black" d="M1442,-85.04C1442,-100.37 1442,-119.8 1442,-119.8 1442,-119.8 1169.35,-119.8 1169.35,-119.8"/>
<polygon fill="black" stroke="black" points="1169.35,-116.3 1159.35,-119.8 1169.35,-123.3 1169.35,-116.3"/>
</g>
<!-- InputMediumComponent -->
<g id="node7" class="node">
<title>InputMediumComponent</title>
<polygon fill="#ffffb3" stroke="black" points="1359.32,-84.8 1200.68,-84.8 1200.68,-48.8 1359.32,-48.8 1359.32,-84.8"/>
<text text-anchor="middle" x="1280" y="-62.6" font-family="Times,serif" font-size="14.00">InputMediumComponent</text>
</g>
<!-- InputMediumComponent&#45;&gt;SharedModule -->
<g id="edge7" class="edge">
<title>InputMediumComponent&#45;&gt;SharedModule</title>
<path fill="none" stroke="black" d="M1204.97,-84.85C1204.97,-99.17 1204.97,-116.8 1204.97,-116.8 1204.97,-116.8 1169.43,-116.8 1169.43,-116.8"/>
<polygon fill="black" stroke="black" points="1169.43,-113.3 1159.43,-116.8 1169.43,-120.3 1169.43,-113.3"/>
</g>
<!-- InputMediumDirective -->
<g id="node8" class="node">
<title>InputMediumDirective</title>
<polygon fill="#ffffb3" stroke="black" points="1182.57,-84.8 1037.43,-84.8 1037.43,-48.8 1182.57,-48.8 1182.57,-84.8"/>
<text text-anchor="middle" x="1110" y="-62.6" font-family="Times,serif" font-size="14.00">InputMediumDirective</text>
</g>
<!-- InputMediumDirective&#45;&gt;SharedModule -->
<g id="edge8" class="edge">
<title>InputMediumDirective&#45;&gt;SharedModule</title>
<path fill="none" stroke="black" d="M1110,-84.91C1110,-84.91 1110,-103.79 1110,-103.79"/>
<polygon fill="black" stroke="black" points="1106.5,-103.79 1110,-113.79 1113.5,-103.79 1106.5,-103.79"/>
</g>
<!-- InputSmallComponent -->
<g id="node9" class="node">
<title>InputSmallComponent</title>
<polygon fill="#ffffb3" stroke="black" points="1019.55,-84.8 876.45,-84.8 876.45,-48.8 1019.55,-48.8 1019.55,-84.8"/>
<text text-anchor="middle" x="948" y="-62.6" font-family="Times,serif" font-size="14.00">InputSmallComponent</text>
</g>
<!-- InputSmallComponent&#45;&gt;SharedModule -->
<g id="edge9" class="edge">
<title>InputSmallComponent&#45;&gt;SharedModule</title>
<path fill="none" stroke="black" d="M1015.53,-84.85C1015.53,-99.17 1015.53,-116.8 1015.53,-116.8 1015.53,-116.8 1050.55,-116.8 1050.55,-116.8"/>
<polygon fill="black" stroke="black" points="1050.55,-120.3 1060.55,-116.8 1050.55,-113.3 1050.55,-120.3"/>
</g>
<!-- InputSmallDirective -->
<g id="node10" class="node">
<title>InputSmallDirective</title>
<polygon fill="#ffffb3" stroke="black" points="858.3,-84.8 727.7,-84.8 727.7,-48.8 858.3,-48.8 858.3,-84.8"/>
<text text-anchor="middle" x="793" y="-62.6" font-family="Times,serif" font-size="14.00">InputSmallDirective</text>
</g>
<!-- InputSmallDirective&#45;&gt;SharedModule -->
<g id="edge10" class="edge">
<title>InputSmallDirective&#45;&gt;SharedModule</title>
<path fill="none" stroke="black" d="M851.34,-85.04C851.34,-100.37 851.34,-119.8 851.34,-119.8 851.34,-119.8 1050.74,-119.8 1050.74,-119.8"/>
<polygon fill="black" stroke="black" points="1050.74,-123.3 1060.74,-119.8 1050.74,-116.3 1050.74,-123.3"/>
</g>
<!-- ModalComponent -->
<g id="node11" class="node">
<title>ModalComponent</title>
<polygon fill="#ffffb3" stroke="black" points="709.88,-84.8 592.12,-84.8 592.12,-48.8 709.88,-48.8 709.88,-84.8"/>
<text text-anchor="middle" x="651" y="-62.6" font-family="Times,serif" font-size="14.00">ModalComponent</text>
</g>
<!-- ModalComponent&#45;&gt;SharedModule -->
<g id="edge11" class="edge">
<title>ModalComponent&#45;&gt;SharedModule</title>
<path fill="none" stroke="black" d="M703.71,-84.81C703.71,-100.85 703.71,-121.8 703.71,-121.8 703.71,-121.8 1050.59,-121.8 1050.59,-121.8"/>
<polygon fill="black" stroke="black" points="1050.59,-125.3 1060.59,-121.8 1050.59,-118.3 1050.59,-125.3"/>
</g>
<!-- RgbToStringPipe -->
<g id="node12" class="node">
<title>RgbToStringPipe</title>
<polygon fill="#ffffb3" stroke="black" points="574,-84.8 460,-84.8 460,-48.8 574,-48.8 574,-84.8"/>
<text text-anchor="middle" x="517" y="-62.6" font-family="Times,serif" font-size="14.00">RgbToStringPipe</text>
</g>
<!-- RgbToStringPipe&#45;&gt;SharedModule -->
<g id="edge12" class="edge">
<title>RgbToStringPipe&#45;&gt;SharedModule</title>
<path fill="none" stroke="black" d="M560.05,-84.83C560.05,-101.86 560.05,-124.8 560.05,-124.8 560.05,-124.8 1050.71,-124.8 1050.71,-124.8"/>
<polygon fill="black" stroke="black" points="1050.71,-128.3 1060.71,-124.8 1050.71,-121.3 1050.71,-128.3"/>
</g>
<!-- SliderComponent -->
<g id="node13" class="node">
<title>SliderComponent</title>
<polygon fill="#ffffb3" stroke="black" points="442.27,-84.8 327.73,-84.8 327.73,-48.8 442.27,-48.8 442.27,-84.8"/>
<text text-anchor="middle" x="385" y="-62.6" font-family="Times,serif" font-size="14.00">SliderComponent</text>
</g>
<!-- SliderComponent&#45;&gt;SharedModule -->
<g id="edge13" class="edge">
<title>SliderComponent&#45;&gt;SharedModule</title>
<path fill="none" stroke="black" d="M424.35,-84.8C424.35,-102.48 424.35,-126.8 424.35,-126.8 424.35,-126.8 1050.69,-126.8 1050.69,-126.8"/>
<polygon fill="black" stroke="black" points="1050.69,-130.3 1060.69,-126.8 1050.69,-123.3 1050.69,-130.3"/>
</g>
<!-- ButtonDirective  -->
<g id="node15" class="node">
<title>ButtonDirective </title>
<polygon fill="#fb8072" stroke="black" points="2124.7,-214.8 2015.3,-214.8 2015.3,-178.8 2124.7,-178.8 2124.7,-214.8"/>
<text text-anchor="middle" x="2070" y="-192.6" font-family="Times,serif" font-size="14.00">ButtonDirective </text>
</g>
<!-- SharedModule&#45;&gt;ButtonDirective  -->
<g id="edge14" class="edge">
<title>SharedModule&#45;&gt;ButtonDirective </title>
<path fill="none" stroke="black" stroke-dasharray="5,2" d="M1159.52,-134.8C1358.39,-134.8 2088.28,-134.8 2088.28,-134.8 2088.28,-134.8 2088.28,-168.53 2088.28,-168.53"/>
<polygon fill="black" stroke="black" points="2084.78,-168.53 2088.28,-178.53 2091.78,-168.53 2084.78,-168.53"/>
</g>
<!-- ButtonSmallDirective  -->
<g id="node16" class="node">
<title>ButtonSmallDirective </title>
<polygon fill="#fb8072" stroke="black" points="1997.37,-214.8 1854.63,-214.8 1854.63,-178.8 1997.37,-178.8 1997.37,-214.8"/>
<text text-anchor="middle" x="1926" y="-192.6" font-family="Times,serif" font-size="14.00">ButtonSmallDirective </text>
</g>
<!-- SharedModule&#45;&gt;ButtonSmallDirective  -->
<g id="edge15" class="edge">
<title>SharedModule&#45;&gt;ButtonSmallDirective </title>
<path fill="none" stroke="black" stroke-dasharray="5,2" d="M1159.46,-137.8C1332.56,-137.8 1900.67,-137.8 1900.67,-137.8 1900.67,-137.8 1900.67,-168.78 1900.67,-168.78"/>
<polygon fill="black" stroke="black" points="1897.17,-168.78 1900.67,-178.78 1904.17,-168.78 1897.17,-168.78"/>
</g>
<!-- ColorInputComponent  -->
<g id="node17" class="node">
<title>ColorInputComponent </title>
<polygon fill="#fb8072" stroke="black" points="1837.27,-214.8 1690.73,-214.8 1690.73,-178.8 1837.27,-178.8 1837.27,-214.8"/>
<text text-anchor="middle" x="1764" y="-192.6" font-family="Times,serif" font-size="14.00">ColorInputComponent </text>
</g>
<!-- SharedModule&#45;&gt;ColorInputComponent  -->
<g id="edge16" class="edge">
<title>SharedModule&#45;&gt;ColorInputComponent </title>
<path fill="none" stroke="black" stroke-dasharray="5,2" d="M1159.25,-139.8C1307.21,-139.8 1737.63,-139.8 1737.63,-139.8 1737.63,-139.8 1737.63,-168.76 1737.63,-168.76"/>
<polygon fill="black" stroke="black" points="1734.13,-168.76 1737.63,-178.76 1741.13,-168.76 1734.13,-168.76"/>
</g>
<!-- DropDownComponent  -->
<g id="node18" class="node">
<title>DropDownComponent </title>
<polygon fill="#fb8072" stroke="black" points="1672.81,-214.8 1525.19,-214.8 1525.19,-178.8 1672.81,-178.8 1672.81,-214.8"/>
<text text-anchor="middle" x="1599" y="-192.6" font-family="Times,serif" font-size="14.00">DropDownComponent </text>
</g>
<!-- SharedModule&#45;&gt;DropDownComponent  -->
<g id="edge17" class="edge">
<title>SharedModule&#45;&gt;DropDownComponent </title>
<path fill="none" stroke="black" stroke-dasharray="5,2" d="M1159.56,-142.8C1279.02,-142.8 1573.08,-142.8 1573.08,-142.8 1573.08,-142.8 1573.08,-168.52 1573.08,-168.52"/>
<polygon fill="black" stroke="black" points="1569.58,-168.52 1573.08,-178.52 1576.58,-168.52 1569.58,-168.52"/>
</g>
<!-- InputLargeComponent  -->
<g id="node19" class="node">
<title>InputLargeComponent </title>
<polygon fill="#fb8072" stroke="black" points="1507.53,-214.8 1360.47,-214.8 1360.47,-178.8 1507.53,-178.8 1507.53,-214.8"/>
<text text-anchor="middle" x="1434" y="-192.6" font-family="Times,serif" font-size="14.00">InputLargeComponent </text>
</g>
<!-- SharedModule&#45;&gt;InputLargeComponent  -->
<g id="edge18" class="edge">
<title>SharedModule&#45;&gt;InputLargeComponent </title>
<path fill="none" stroke="black" stroke-dasharray="5,2" d="M1159.26,-144.8C1234.32,-144.8 1368.67,-144.8 1368.67,-144.8 1368.67,-144.8 1368.67,-168.61 1368.67,-168.61"/>
<polygon fill="black" stroke="black" points="1365.17,-168.61 1368.67,-178.61 1372.17,-168.61 1365.17,-168.61"/>
</g>
<!-- InputLargeDirective  -->
<g id="node20" class="node">
<title>InputLargeDirective </title>
<polygon fill="#fb8072" stroke="black" points="1342.78,-214.8 1209.22,-214.8 1209.22,-178.8 1342.78,-178.8 1342.78,-214.8"/>
<text text-anchor="middle" x="1276" y="-192.6" font-family="Times,serif" font-size="14.00">InputLargeDirective </text>
</g>
<!-- SharedModule&#45;&gt;InputLargeDirective  -->
<g id="edge19" class="edge">
<title>SharedModule&#45;&gt;InputLargeDirective </title>
<path fill="none" stroke="black" stroke-dasharray="5,2" d="M1159.36,-147.8C1208.29,-147.8 1276,-147.8 1276,-147.8 1276,-147.8 1276,-168.55 1276,-168.55"/>
<polygon fill="black" stroke="black" points="1272.5,-168.55 1276,-178.55 1279.5,-168.55 1272.5,-168.55"/>
</g>
<!-- InputMediumComponent  -->
<g id="node21" class="node">
<title>InputMediumComponent </title>
<polygon fill="#fb8072" stroke="black" points="1190.82,-214.8 1029.18,-214.8 1029.18,-178.8 1190.82,-178.8 1190.82,-214.8"/>
<text text-anchor="middle" x="1110" y="-192.6" font-family="Times,serif" font-size="14.00">InputMediumComponent </text>
</g>
<!-- SharedModule&#45;&gt;InputMediumComponent  -->
<g id="edge20" class="edge">
<title>SharedModule&#45;&gt;InputMediumComponent </title>
<path fill="none" stroke="black" stroke-dasharray="5,2" d="M1110,-149.91C1110,-149.91 1110,-168.79 1110,-168.79"/>
<polygon fill="black" stroke="black" points="1106.5,-168.79 1110,-178.79 1113.5,-168.79 1106.5,-168.79"/>
</g>
<!-- InputMediumDirective  -->
<g id="node22" class="node">
<title>InputMediumDirective </title>
<polygon fill="#fb8072" stroke="black" points="1011.08,-214.8 862.92,-214.8 862.92,-178.8 1011.08,-178.8 1011.08,-214.8"/>
<text text-anchor="middle" x="937" y="-192.6" font-family="Times,serif" font-size="14.00">InputMediumDirective </text>
</g>
<!-- SharedModule&#45;&gt;InputMediumDirective  -->
<g id="edge21" class="edge">
<title>SharedModule&#45;&gt;InputMediumDirective </title>
<path fill="none" stroke="black" stroke-dasharray="5,2" d="M1060.57,-147.8C1011.57,-147.8 943.76,-147.8 943.76,-147.8 943.76,-147.8 943.76,-168.55 943.76,-168.55"/>
<polygon fill="black" stroke="black" points="940.26,-168.55 943.76,-178.55 947.26,-168.55 940.26,-168.55"/>
</g>
<!-- InputSmallComponent  -->
<g id="node23" class="node">
<title>InputSmallComponent </title>
<polygon fill="#fb8072" stroke="black" points="844.55,-214.8 697.45,-214.8 697.45,-178.8 844.55,-178.8 844.55,-214.8"/>
<text text-anchor="middle" x="771" y="-192.6" font-family="Times,serif" font-size="14.00">InputSmallComponent </text>
</g>
<!-- SharedModule&#45;&gt;InputSmallComponent  -->
<g id="edge22" class="edge">
<title>SharedModule&#45;&gt;InputSmallComponent </title>
<path fill="none" stroke="black" stroke-dasharray="5,2" d="M1060.47,-144.8C969.76,-144.8 786.19,-144.8 786.19,-144.8 786.19,-144.8 786.19,-168.61 786.19,-168.61"/>
<polygon fill="black" stroke="black" points="782.69,-168.61 786.19,-178.61 789.69,-168.61 782.69,-168.61"/>
</g>
<!-- InputSmallDirective  -->
<g id="node24" class="node">
<title>InputSmallDirective </title>
<polygon fill="#fb8072" stroke="black" points="679.8,-214.8 546.2,-214.8 546.2,-178.8 679.8,-178.8 679.8,-214.8"/>
<text text-anchor="middle" x="613" y="-192.6" font-family="Times,serif" font-size="14.00">InputSmallDirective </text>
</g>
<!-- SharedModule&#45;&gt;InputSmallDirective  -->
<g id="edge23" class="edge">
<title>SharedModule&#45;&gt;InputSmallDirective </title>
<path fill="none" stroke="black" stroke-dasharray="5,2" d="M1060.61,-142.8C939.2,-142.8 635.98,-142.8 635.98,-142.8 635.98,-142.8 635.98,-168.52 635.98,-168.52"/>
<polygon fill="black" stroke="black" points="632.48,-168.52 635.98,-178.52 639.48,-168.52 632.48,-168.52"/>
</g>
<!-- ModalComponent  -->
<g id="node25" class="node">
<title>ModalComponent </title>
<polygon fill="#fb8072" stroke="black" points="527.88,-214.8 406.12,-214.8 406.12,-178.8 527.88,-178.8 527.88,-214.8"/>
<text text-anchor="middle" x="467" y="-192.6" font-family="Times,serif" font-size="14.00">ModalComponent </text>
</g>
<!-- SharedModule&#45;&gt;ModalComponent  -->
<g id="edge24" class="edge">
<title>SharedModule&#45;&gt;ModalComponent </title>
<path fill="none" stroke="black" stroke-dasharray="5,2" d="M1060.62,-139.8C914.41,-139.8 493.85,-139.8 493.85,-139.8 493.85,-139.8 493.85,-168.76 493.85,-168.76"/>
<polygon fill="black" stroke="black" points="490.35,-168.76 493.85,-178.76 497.35,-168.76 490.35,-168.76"/>
</g>
<!-- PaneModule  -->
<g id="node26" class="node">
<title>PaneModule </title>
<polygon fill="#fb8072" stroke="black" points="388.26,-214.8 297.74,-214.8 297.74,-178.8 388.26,-178.8 388.26,-214.8"/>
<text text-anchor="middle" x="343" y="-192.6" font-family="Times,serif" font-size="14.00">PaneModule </text>
</g>
<!-- SharedModule&#45;&gt;PaneModule  -->
<g id="edge25" class="edge">
<title>SharedModule&#45;&gt;PaneModule </title>
<path fill="none" stroke="black" stroke-dasharray="5,2" d="M1060.65,-137.8C893.32,-137.8 357.87,-137.8 357.87,-137.8 357.87,-137.8 357.87,-168.78 357.87,-168.78"/>
<polygon fill="black" stroke="black" points="354.37,-168.78 357.87,-178.78 361.37,-168.78 354.37,-168.78"/>
</g>
<!-- SliderComponent  -->
<g id="node27" class="node">
<title>SliderComponent </title>
<polygon fill="#fb8072" stroke="black" points="280.27,-214.8 161.73,-214.8 161.73,-178.8 280.27,-178.8 280.27,-214.8"/>
<text text-anchor="middle" x="221" y="-192.6" font-family="Times,serif" font-size="14.00">SliderComponent </text>
</g>
<!-- SharedModule&#45;&gt;SliderComponent  -->
<g id="edge26" class="edge">
<title>SharedModule&#45;&gt;SliderComponent </title>
<path fill="none" stroke="black" stroke-dasharray="5,2" d="M1060.57,-134.8C874.4,-134.8 225.94,-134.8 225.94,-134.8 225.94,-134.8 225.94,-168.53 225.94,-168.53"/>
<polygon fill="black" stroke="black" points="222.44,-168.53 225.94,-178.53 229.44,-168.53 222.44,-168.53"/>
</g>
<!-- HelperService -->
<g id="node28" class="node">
<title>HelperService</title>
<ellipse fill="#fdb462" stroke="black" cx="238" cy="-66.8" rx="66.03" ry="18"/>
<text text-anchor="middle" x="238" y="-62.6" font-family="Times,serif" font-size="14.00">HelperService</text>
</g>
<!-- HelperService&#45;&gt;SharedModule -->
<g id="edge27" class="edge">
<title>HelperService&#45;&gt;SharedModule</title>
<path fill="none" stroke="black" d="M289,-78.36C289,-96.54 289,-129.8 289,-129.8 289,-129.8 1050.49,-129.8 1050.49,-129.8"/>
<polygon fill="black" stroke="black" points="1050.49,-133.3 1060.49,-129.8 1050.49,-126.3 1050.49,-133.3"/>
</g>
<!-- ModalService -->
<g id="node29" class="node">
<title>ModalService</title>
<ellipse fill="#fdb462" stroke="black" cx="89" cy="-66.8" rx="65.41" ry="18"/>
<text text-anchor="middle" x="89" y="-62.6" font-family="Times,serif" font-size="14.00">ModalService</text>
</g>
<!-- ModalService&#45;&gt;SharedModule -->
<g id="edge28" class="edge">
<title>ModalService&#45;&gt;SharedModule</title>
<path fill="none" stroke="black" d="M89,-84.91C89,-104.14 89,-131.8 89,-131.8 89,-131.8 1050.76,-131.8 1050.76,-131.8"/>
<polygon fill="black" stroke="black" points="1050.76,-135.3 1060.76,-131.8 1050.76,-128.3 1050.76,-135.3"/>
</g>
</g>
</svg>
