<?xml version="1.0" encoding="UTF-8" standalone="no"?>
<!DOCTYPE svg PUBLIC "-//W3C//DTD SVG 1.1//EN"
 "http://www.w3.org/Graphics/SVG/1.1/DTD/svg11.dtd">
<!-- Generated by graphviz version 2.47.3 (20210619.1520)
 -->
<!-- Title: dependencies Pages: 1 -->
<svg width="638pt" height="247pt"
 viewBox="0.00 0.00 638.00 246.80" xmlns="http://www.w3.org/2000/svg" xmlns:xlink="http://www.w3.org/1999/xlink">
<g id="graph0" class="graph" transform="scale(1 1) rotate(0) translate(4 242.8)">
<title>dependencies</title>
<polygon fill="white" stroke="transparent" points="-4,4 -4,-242.8 634,-242.8 634,4 -4,4"/>
<text text-anchor="middle" x="315" y="-8.2" font-family="sans-serif" font-size="14.00">dependencies</text>
<g id="clust1" class="cluster">
<title>cluster_PaneModule</title>
<polygon fill="none" stroke="black" stroke-dasharray="1,5" points="8,-32.8 8,-230.8 622,-230.8 622,-32.8 8,-32.8"/>
</g>
<g id="clust2" class="cluster">
<title>cluster_PaneModule_declarations</title>
<polygon fill="none" stroke="black" points="16,-40.8 16,-92.8 614,-92.8 614,-40.8 16,-40.8"/>
</g>
<g id="clust8" class="cluster">
<title>cluster_PaneModule_exports</title>
<polygon fill="none" stroke="black" points="95,-170.8 95,-222.8 535,-222.8 535,-170.8 95,-170.8"/>
</g>
<!-- PaneComponent -->
<g id="node1" class="node">
<title>PaneComponent</title>
<polygon fill="#ffffb3" stroke="black" points="606.05,-84.8 497.95,-84.8 497.95,-48.8 606.05,-48.8 606.05,-84.8"/>
<text text-anchor="middle" x="552" y="-62.6" font-family="Times,serif" font-size="14.00">PaneComponent</text>
</g>
<!-- PaneModule -->
<g id="node5" class="node">
<title>PaneModule</title>
<polygon fill="#8dd3c7" stroke="black" points="356.26,-149.8 353.26,-153.8 332.26,-153.8 329.26,-149.8 269.74,-149.8 269.74,-113.8 356.26,-113.8 356.26,-149.8"/>
<text text-anchor="middle" x="313" y="-127.6" font-family="Times,serif" font-size="14.00">PaneModule</text>
</g>
<!-- PaneComponent&#45;&gt;PaneModule -->
<g id="edge1" class="edge">
<title>PaneComponent&#45;&gt;PaneModule</title>
<path fill="none" stroke="black" d="M512.38,-84.82C512.38,-102.17 512.38,-125.8 512.38,-125.8 512.38,-125.8 366.75,-125.8 366.75,-125.8"/>
<polygon fill="black" stroke="black" points="366.75,-122.3 356.75,-125.8 366.75,-129.3 366.75,-122.3"/>
</g>
<!-- PaneContainerComponent -->
<g id="node2" class="node">
<title>PaneContainerComponent</title>
<polygon fill="#ffffb3" stroke="black" points="479.75,-84.8 316.25,-84.8 316.25,-48.8 479.75,-48.8 479.75,-84.8"/>
<text text-anchor="middle" x="398" y="-62.6" font-family="Times,serif" font-size="14.00">PaneContainerComponent</text>
</g>
<!-- PaneContainerComponent&#45;&gt;PaneModule -->
<g id="edge2" class="edge">
<title>PaneContainerComponent&#45;&gt;PaneModule</title>
<path fill="none" stroke="black" d="M336.25,-84.91C336.25,-84.91 336.25,-103.79 336.25,-103.79"/>
<polygon fill="black" stroke="black" points="332.75,-103.79 336.25,-113.79 339.75,-103.79 332.75,-103.79"/>
</g>
<!-- PaneDividerComponent -->
<g id="node3" class="node">
<title>PaneDividerComponent</title>
<polygon fill="#ffffb3" stroke="black" points="297.81,-84.8 146.19,-84.8 146.19,-48.8 297.81,-48.8 297.81,-84.8"/>
<text text-anchor="middle" x="222" y="-62.6" font-family="Times,serif" font-size="14.00">PaneDividerComponent</text>
</g>
<!-- PaneDividerComponent&#45;&gt;PaneModule -->
<g id="edge3" class="edge">
<title>PaneDividerComponent&#45;&gt;PaneModule</title>
<path fill="none" stroke="black" d="M283.64,-84.91C283.64,-84.91 283.64,-103.79 283.64,-103.79"/>
<polygon fill="black" stroke="black" points="280.14,-103.79 283.64,-113.79 287.14,-103.79 280.14,-103.79"/>
</g>
<!-- PaneIfDirective -->
<g id="node4" class="node">
<title>PaneIfDirective</title>
<polygon fill="#ffffb3" stroke="black" points="128.12,-84.8 23.88,-84.8 23.88,-48.8 128.12,-48.8 128.12,-84.8"/>
<text text-anchor="middle" x="76" y="-62.6" font-family="Times,serif" font-size="14.00">PaneIfDirective</text>
</g>
<!-- PaneIfDirective&#45;&gt;PaneModule -->
<g id="edge4" class="edge">
<title>PaneIfDirective&#45;&gt;PaneModule</title>
<path fill="none" stroke="black" d="M115.62,-84.82C115.62,-102.17 115.62,-125.8 115.62,-125.8 115.62,-125.8 259.69,-125.8 259.69,-125.8"/>
<polygon fill="black" stroke="black" points="259.69,-129.3 269.69,-125.8 259.69,-122.3 259.69,-129.3"/>
</g>
<!-- PaneComponent  -->
<g id="node6" class="node">
<title>PaneComponent </title>
<polygon fill="#fb8072" stroke="black" points="527.04,-214.8 414.96,-214.8 414.96,-178.8 527.04,-178.8 527.04,-214.8"/>
<text text-anchor="middle" x="471" y="-192.6" font-family="Times,serif" font-size="14.00">PaneComponent </text>
</g>
<!-- PaneModule&#45;&gt;PaneComponent  -->
<g id="edge5" class="edge">
<title>PaneModule&#45;&gt;PaneComponent </title>
<path fill="none" stroke="black" stroke-dasharray="5,2" d="M356.27,-137.8C395.57,-137.8 447.43,-137.8 447.43,-137.8 447.43,-137.8 447.43,-168.78 447.43,-168.78"/>
<polygon fill="black" stroke="black" points="443.93,-168.78 447.43,-178.78 450.93,-168.78 443.93,-168.78"/>
</g>
<!-- PaneContainerComponent  -->
<g id="node7" class="node">
<title>PaneContainerComponent </title>
<polygon fill="#fb8072" stroke="black" points="396.75,-214.8 229.25,-214.8 229.25,-178.8 396.75,-178.8 396.75,-214.8"/>
<text text-anchor="middle" x="313" y="-192.6" font-family="Times,serif" font-size="14.00">PaneContainerComponent </text>
</g>
<!-- PaneModule&#45;&gt;PaneContainerComponent  -->
<g id="edge6" class="edge">
<title>PaneModule&#45;&gt;PaneContainerComponent </title>
<path fill="none" stroke="black" stroke-dasharray="5,2" d="M313,-149.91C313,-149.91 313,-168.79 313,-168.79"/>
<polygon fill="black" stroke="black" points="309.5,-168.79 313,-178.79 316.5,-168.79 309.5,-168.79"/>
</g>
<!-- PaneIfDirective  -->
<g id="node8" class="node">
<title>PaneIfDirective </title>
<polygon fill="#fb8072" stroke="black" points="211.12,-214.8 102.88,-214.8 102.88,-178.8 211.12,-178.8 211.12,-214.8"/>
<text text-anchor="middle" x="157" y="-192.6" font-family="Times,serif" font-size="14.00">PaneIfDirective </text>
</g>
<!-- PaneModule&#45;&gt;PaneIfDirective  -->
<g id="edge7" class="edge">
<title>PaneModule&#45;&gt;PaneIfDirective </title>
<path fill="none" stroke="black" stroke-dasharray="5,2" d="M269.4,-137.8C230.18,-137.8 178.7,-137.8 178.7,-137.8 178.7,-137.8 178.7,-168.78 178.7,-168.78"/>
<polygon fill="black" stroke="black" points="175.2,-168.78 178.7,-178.78 182.2,-168.78 175.2,-168.78"/>
</g>
</g>
</svg>
