<?xml version="1.0" encoding="UTF-8" standalone="no"?>
<!DOCTYPE svg PUBLIC "-//W3C//DTD SVG 1.1//EN"
 "http://www.w3.org/Graphics/SVG/1.1/DTD/svg11.dtd">
<!-- Generated by graphviz version 2.47.3 (20210619.1520)
 -->
<!-- Title: dependencies Pages: 1 -->
<svg width="1288pt" height="247pt"
 viewBox="0.00 0.00 1288.00 246.80" xmlns="http://www.w3.org/2000/svg" xmlns:xlink="http://www.w3.org/1999/xlink">
<g id="graph0" class="graph" transform="scale(1 1) rotate(0) translate(4 242.8)">
<title>dependencies</title>
<polygon fill="white" stroke="transparent" points="-4,4 -4,-242.8 1284,-242.8 1284,4 -4,4"/>
<text text-anchor="middle" x="640" y="-8.2" font-family="sans-serif" font-size="14.00">dependencies</text>
<g id="clust1" class="cluster">
<title>cluster_DataPanelModule</title>
<polygon fill="none" stroke="black" stroke-dasharray="1,5" points="8,-32.8 8,-230.8 1272,-230.8 1272,-32.8 8,-32.8"/>
</g>
<g id="clust2" class="cluster">
<title>cluster_DataPanelModule_declarations</title>
<polygon fill="none" stroke="black" points="138,-40.8 138,-92.8 1264,-92.8 1264,-40.8 138,-40.8"/>
</g>
<g id="clust9" class="cluster">
<title>cluster_DataPanelModule_imports</title>
<polygon fill="none" stroke="black" points="16,-40.8 16,-92.8 130,-92.8 130,-40.8 16,-40.8"/>
</g>
<g id="clust10" class="cluster">
<title>cluster_DataPanelModule_exports</title>
<polygon fill="none" stroke="black" points="511,-170.8 511,-222.8 669,-222.8 669,-170.8 511,-170.8"/>
</g>
<!-- DataPanelComponent -->
<g id="node1" class="node">
<title>DataPanelComponent</title>
<polygon fill="#ffffb3" stroke="black" points="1256.36,-84.8 1117.64,-84.8 1117.64,-48.8 1256.36,-48.8 1256.36,-84.8"/>
<text text-anchor="middle" x="1187" y="-62.6" font-family="Times,serif" font-size="14.00">DataPanelComponent</text>
</g>
<!-- DataPanelModule -->
<g id="node7" class="node">
<title>DataPanelModule</title>
<polygon fill="#8dd3c7" stroke="black" points="648.58,-149.8 645.58,-153.8 624.58,-153.8 621.58,-149.8 531.42,-149.8 531.42,-113.8 648.58,-113.8 648.58,-149.8"/>
<text text-anchor="middle" x="590" y="-127.6" font-family="Times,serif" font-size="14.00">DataPanelModule</text>
</g>
<!-- DataPanelComponent&#45;&gt;DataPanelModule -->
<g id="edge1" class="edge">
<title>DataPanelComponent&#45;&gt;DataPanelModule</title>
<path fill="none" stroke="black" d="M1187,-85.09C1187,-107.01 1187,-140.8 1187,-140.8 1187,-140.8 658.6,-140.8 658.6,-140.8"/>
<polygon fill="black" stroke="black" points="658.6,-137.3 648.6,-140.8 658.6,-144.3 658.6,-137.3"/>
</g>
<!-- DataPanelNavbarComponent -->
<g id="node2" class="node">
<title>DataPanelNavbarComponent</title>
<polygon fill="#ffffb3" stroke="black" points="1100.06,-84.8 919.94,-84.8 919.94,-48.8 1100.06,-48.8 1100.06,-84.8"/>
<text text-anchor="middle" x="1010" y="-62.6" font-family="Times,serif" font-size="14.00">DataPanelNavbarComponent</text>
</g>
<!-- DataPanelNavbarComponent&#45;&gt;DataPanelModule -->
<g id="edge2" class="edge">
<title>DataPanelNavbarComponent&#45;&gt;DataPanelModule</title>
<path fill="none" stroke="black" d="M1010,-84.91C1010,-104.14 1010,-131.8 1010,-131.8 1010,-131.8 658.84,-131.8 658.84,-131.8"/>
<polygon fill="black" stroke="black" points="658.84,-128.3 648.84,-131.8 658.84,-135.3 658.84,-128.3"/>
</g>
<!-- DataPanelNavbarEntryComponent -->
<g id="node3" class="node">
<title>DataPanelNavbarEntryComponent</title>
<polygon fill="#ffffb3" stroke="black" points="901.66,-84.8 690.34,-84.8 690.34,-48.8 901.66,-48.8 901.66,-84.8"/>
<text text-anchor="middle" x="796" y="-62.6" font-family="Times,serif" font-size="14.00">DataPanelNavbarEntryComponent</text>
</g>
<!-- DataPanelNavbarEntryComponent&#45;&gt;DataPanelModule -->
<g id="edge3" class="edge">
<title>DataPanelNavbarEntryComponent&#45;&gt;DataPanelModule</title>
<path fill="none" stroke="black" d="M796,-84.83C796,-101.2 796,-122.8 796,-122.8 796,-122.8 658.76,-122.8 658.76,-122.8"/>
<polygon fill="black" stroke="black" points="658.76,-119.3 648.76,-122.8 658.76,-126.3 658.76,-119.3"/>
</g>
<!-- InspectorPanelComponent -->
<g id="node4" class="node">
<title>InspectorPanelComponent</title>
<polygon fill="#ffffb3" stroke="black" points="672.02,-84.8 507.98,-84.8 507.98,-48.8 672.02,-48.8 672.02,-84.8"/>
<text text-anchor="middle" x="590" y="-62.6" font-family="Times,serif" font-size="14.00">InspectorPanelComponent</text>
</g>
<!-- InspectorPanelComponent&#45;&gt;DataPanelModule -->
<g id="edge4" class="edge">
<title>InspectorPanelComponent&#45;&gt;DataPanelModule</title>
<path fill="none" stroke="black" d="M590,-84.91C590,-84.91 590,-103.79 590,-103.79"/>
<polygon fill="black" stroke="black" points="586.5,-103.79 590,-113.79 593.5,-103.79 586.5,-103.79"/>
</g>
<!-- NetworkPanelComponent -->
<g id="node5" class="node">
<title>NetworkPanelComponent</title>
<polygon fill="#ffffb3" stroke="black" points="489.91,-84.8 328.09,-84.8 328.09,-48.8 489.91,-48.8 489.91,-84.8"/>
<text text-anchor="middle" x="409" y="-62.6" font-family="Times,serif" font-size="14.00">NetworkPanelComponent</text>
</g>
<!-- NetworkPanelComponent&#45;&gt;DataPanelModule -->
<g id="edge5" class="edge">
<title>NetworkPanelComponent&#45;&gt;DataPanelModule</title>
<path fill="none" stroke="black" d="M409,-84.83C409,-101.2 409,-122.8 409,-122.8 409,-122.8 521.23,-122.8 521.23,-122.8"/>
<polygon fill="black" stroke="black" points="521.23,-126.3 531.23,-122.8 521.23,-119.3 521.23,-126.3"/>
</g>
<!-- StructurePanelComponent -->
<g id="node6" class="node">
<title>StructurePanelComponent</title>
<polygon fill="#ffffb3" stroke="black" points="309.75,-84.8 146.25,-84.8 146.25,-48.8 309.75,-48.8 309.75,-84.8"/>
<text text-anchor="middle" x="228" y="-62.6" font-family="Times,serif" font-size="14.00">StructurePanelComponent</text>
</g>
<!-- StructurePanelComponent&#45;&gt;DataPanelModule -->
<g id="edge6" class="edge">
<title>StructurePanelComponent&#45;&gt;DataPanelModule</title>
<path fill="none" stroke="black" d="M228,-84.91C228,-104.14 228,-131.8 228,-131.8 228,-131.8 521.44,-131.8 521.44,-131.8"/>
<polygon fill="black" stroke="black" points="521.44,-135.3 531.44,-131.8 521.44,-128.3 521.44,-135.3"/>
</g>
<!-- DataPanelComponent  -->
<g id="node9" class="node">
<title>DataPanelComponent </title>
<polygon fill="#fb8072" stroke="black" points="661.36,-214.8 518.64,-214.8 518.64,-178.8 661.36,-178.8 661.36,-214.8"/>
<text text-anchor="middle" x="590" y="-192.6" font-family="Times,serif" font-size="14.00">DataPanelComponent </text>
</g>
<!-- DataPanelModule&#45;&gt;DataPanelComponent  -->
<g id="edge8" class="edge">
<title>DataPanelModule&#45;&gt;DataPanelComponent </title>
<path fill="none" stroke="black" stroke-dasharray="5,2" d="M590,-149.91C590,-149.91 590,-168.79 590,-168.79"/>
<polygon fill="black" stroke="black" points="586.5,-168.79 590,-178.79 593.5,-168.79 586.5,-168.79"/>
</g>
<!-- SharedModule -->
<g id="node8" class="node">
<title>SharedModule</title>
<polygon fill="#8dd3c7" stroke="black" points="122.42,-84.8 119.42,-88.8 98.42,-88.8 95.42,-84.8 23.58,-84.8 23.58,-48.8 122.42,-48.8 122.42,-84.8"/>
<text text-anchor="middle" x="73" y="-62.6" font-family="Times,serif" font-size="14.00">SharedModule</text>
</g>
<!-- SharedModule&#45;&gt;DataPanelModule -->
<g id="edge7" class="edge">
<title>SharedModule&#45;&gt;DataPanelModule</title>
<path fill="none" stroke="black" d="M73,-85.09C73,-107.01 73,-140.8 73,-140.8 73,-140.8 521.45,-140.8 521.45,-140.8"/>
<polygon fill="black" stroke="black" points="521.45,-144.3 531.45,-140.8 521.45,-137.3 521.45,-144.3"/>
</g>
</g>
</svg>
